<?xml version="1.0" encoding="UTF-8" standalone="no"?>
<!-- Created with Inkscape (http://www.inkscape.org/) -->

<svg
   xmlns:dc="http://purl.org/dc/elements/1.1/"
   xmlns:cc="http://creativecommons.org/ns#"
   xmlns:rdf="http://www.w3.org/1999/02/22-rdf-syntax-ns#"
   xmlns:svg="http://www.w3.org/2000/svg"
   xmlns="http://www.w3.org/2000/svg"
   xmlns:sodipodi="http://sodipodi.sourceforge.net/DTD/sodipodi-0.dtd"
   xmlns:inkscape="http://www.inkscape.org/namespaces/inkscape"
   width="62.88438mm"
   height="15.448136mm"
   viewBox="0 0 222.81867 54.737491"
   id="svg2"
   version="1.1"
   inkscape:version="0.91 r13725"
   sodipodi:docname="gocryptfs-logo.paths.svg"
   inkscape:export-filename="/home/jakob/src/github.com/rfjakob/gocryptfs/Documentation/logo.svg.png"
   inkscape:export-xdpi="185.73964"
   inkscape:export-ydpi="185.73964">
  <defs
     id="defs4" />
  <sodipodi:namedview
     id="base"
     pagecolor="#ffffff"
     bordercolor="#666666"
     borderopacity="1.0"
     inkscape:pageopacity="0.0"
     inkscape:pageshadow="2"
     inkscape:zoom="1"
     inkscape:cx="103.02308"
     inkscape:cy="49.16454"
     inkscape:document-units="px"
     inkscape:current-layer="layer1"
     showgrid="false"
     showguides="true"
     inkscape:guide-bbox="true"
     fit-margin-top="1"
     fit-margin-left="1"
     fit-margin-right="1"
     fit-margin-bottom="1"
     inkscape:window-width="1554"
     inkscape:window-height="773"
     inkscape:window-x="186"
     inkscape:window-y="192"
     inkscape:window-maximized="0">
    <sodipodi:guide
       position="178.62648,14.520731"
       orientation="0,1"
       id="guide4169" />
  </sodipodi:namedview>
  <metadata
     id="metadata7">
    <rdf:RDF>
      <cc:Work
         rdf:about="">
        <dc:format>image/svg+xml</dc:format>
        <dc:type
           rdf:resource="http://purl.org/dc/dcmitype/StillImage" />
        <dc:title></dc:title>
      </cc:Work>
    </rdf:RDF>
  </metadata>
  <g
     inkscape:label="Layer 1"
     inkscape:groupmode="layer"
     id="layer1"
     transform="translate(-130.81632,-368.60543)">
    <g
       style="font-style:normal;font-variant:normal;font-weight:normal;font-stretch:normal;font-size:46.91778564px;line-height:125%;font-family:Comfortaa;-inkscape-font-specification:'Comfortaa, Normal';text-align:start;letter-spacing:0px;word-spacing:0px;writing-mode:lr-tb;text-anchor:start;fill:#99cc99;fill-opacity:1;stroke:none;stroke-width:0.1;stroke-linecap:butt;stroke-linejoin:miter;stroke-miterlimit:4;stroke-dasharray:none;stroke-opacity:1"
       id="text3336">
      <path
         d="m 147.18871,386.8096 q -3.80291,0 -6.48327,2.68036 -2.68036,2.68036 -2.68036,6.48327 0,3.8029 2.68036,6.48326 2.68036,2.68037 6.48327,2.68037 3.80291,0 6.48327,-2.68037 2.68036,-2.68036 2.68036,-6.48326 0,-3.80291 -2.68036,-6.48327 -2.68036,-2.68036 -6.48327,-2.68036 z m 9.16363,18.14398 q -0.0458,0.0458 -0.0916,0.0916 -3.75709,3.75709 -9.07199,3.75709 -5.31491,0 -9.07199,-3.75709 -3.75709,-3.75709 -3.75709,-9.07199 0,-5.31491 3.75709,-9.072 3.75708,-3.75709 9.07199,-3.75709 5.3149,0 9.07199,3.75709 3.75709,3.75709 3.75709,9.072 l 0,12.82908 q 0,4.00909 -2.88654,6.96436 -4.032,4.03199 -9.73636,4.03199 -5.70436,0 -9.71345,-4.03199 -1.48909,-1.46618 -2.42836,-3.18437 -0.27491,-0.41236 -0.27491,-0.96218 0,-0.756 0.52691,-1.30581 0.54982,-0.52691 1.30582,-0.52691 0.756,0 1.30582,0.52691 0.22909,0.252 0.38945,0.54981 0.68727,1.23709 1.764,2.31382 2.95527,2.95527 7.12472,2.95527 4.16945,0 7.12472,-2.95527 1.83273,-2.19927 1.83273,-4.37563 l 0,-3.84873 z"
         style=""
         id="path4172" />
      <path
         d="m 189.34141,395.97323 q 0,5.3149 -3.75709,9.07199 -3.75709,3.75709 -9.07199,3.75709 -5.31491,0 -9.072,-3.75709 -3.75709,-3.75709 -3.75709,-9.07199 0,-5.31491 3.75709,-9.072 3.75709,-3.75709 9.072,-3.75709 5.3149,0 9.07199,3.75709 3.75709,3.75709 3.75709,9.072 z m -12.82908,-9.16363 q -3.80291,0 -6.48327,2.68036 -2.68036,2.68036 -2.68036,6.48327 0,3.8029 2.68036,6.48326 2.68036,2.68037 6.48327,2.68037 3.8029,0 6.48326,-2.68037 2.68037,-2.68036 2.68037,-6.48326 0,-3.80291 -2.68037,-6.48327 -2.68036,-2.68036 -6.48326,-2.68036 z"
         style=""
         id="path4174" />
    </g>
    <g
       style="font-style:normal;font-variant:normal;font-weight:normal;font-stretch:normal;font-size:46.91778564px;line-height:125%;font-family:Comfortaa;-inkscape-font-specification:'Comfortaa, Normal';text-align:start;letter-spacing:0px;word-spacing:0px;writing-mode:lr-tb;text-anchor:start;fill:#66cccc;fill-opacity:1;stroke:none;stroke-width:0.1;stroke-linecap:butt;stroke-linejoin:miter;stroke-miterlimit:4;stroke-dasharray:none;stroke-opacity:1"
       id="text3340">
      <path
         d="m 212.25567,402.52617 q 0.756,0 1.28291,0.54981 0.54982,0.52691 0.54982,1.28291 0,0.756 -0.57273,1.35164 -3.55091,3.09272 -8.36181,3.09272 -5.31491,0 -9.072,-3.75709 -3.75708,-3.75708 -3.75708,-9.07199 0,-5.3149 3.75708,-9.07199 3.75709,-3.75709 9.072,-3.75709 4.8109,0 8.36181,3.09272 0.64145,0.57273 0.64145,1.42037 0,0.756 -0.54981,1.30581 -0.52691,0.52691 -1.28291,0.52691 -0.66436,0 -1.16836,-0.41236 -2.56582,-2.268 -6.00218,-2.268 -3.80291,0 -6.48327,2.68036 -2.68036,2.68036 -2.68036,6.48327 0,3.80291 2.68036,6.48327 2.68036,2.68036 6.48327,2.68036 3.43636,0 5.97927,-2.24509 0.48109,-0.36654 1.12254,-0.36654 z"
         style=""
         id="path4177" />
      <path
         d="m 217.98294,384.97782 q 0,-0.756 0.52691,-1.28291 0.54982,-0.54982 1.30582,-0.54982 0.756,0 1.28291,0.54982 0.54981,0.52691 0.54981,1.28291 l 0,2.01599 q 3.84873,-3.84872 9.16363,-3.84872 2.68036,0 4.92545,0.91636 0.41237,0.16037 0.756,0.48109 0.52691,0.54982 0.52691,1.30582 0,0.756 -0.54982,1.30582 -0.5269,0.52691 -1.2829,0.52691 -0.43528,0 -0.80182,-0.18328 -1.62655,-0.68727 -3.57382,-0.68727 -3.8029,0 -6.48327,2.68036 -2.68036,2.68036 -2.68036,6.48327 l 0,10.99636 q 0,0.756 -0.54981,1.30581 -0.52691,0.52691 -1.28291,0.52691 -0.756,0 -1.30582,-0.52691 -0.52691,-0.54981 -0.52691,-1.30581 l 0,-21.99271 z"
         style=""
         id="path4179" />
      <path
         d="m 248.97892,406.94762 -8.79708,-21.12217 q -0.20618,-0.38945 -0.20618,-0.84763 0,-0.756 0.5269,-1.28291 0.54982,-0.54982 1.30582,-0.54982 0.756,0 1.30582,0.52691 0.29782,0.32072 0.43527,0.68727 l 7.42254,17.80035 7.42254,-17.80035 q 0.13746,-0.36655 0.45818,-0.68727 0.52691,-0.52691 1.28291,-0.52691 0.756,0 1.28291,0.54982 0.54982,0.52691 0.54982,1.28291 0,0.45818 -0.20618,0.84763 l -13.65381,32.75998 q -0.13746,0.36654 -0.43528,0.66436 -0.54981,0.54982 -1.30581,0.54982 -0.756,0 -1.30582,-0.54982 -0.52691,-0.52691 -0.52691,-1.28291 0,-0.45818 0.20618,-0.84763 l 4.23818,-10.17163 z"
         style=""
         id="path4181" />
      <path
         d="m 269.29927,395.97417 q 0,3.80291 2.68036,6.48327 2.68037,2.68036 6.48327,2.68036 3.80291,0 6.48327,-2.68036 2.68036,-2.68036 2.68036,-6.48327 0,-3.80291 -2.68036,-6.48327 -2.68036,-2.68036 -6.48327,-2.68036 -3.8029,0 -6.48327,2.68036 -2.68036,2.68036 -2.68036,6.48327 z m 0,21.99271 q 0,0.756 -0.54982,1.28291 -0.5269,0.54982 -1.2829,0.54982 -0.756,0 -1.30582,-0.54982 -0.52691,-0.52691 -0.52691,-1.28291 l 0,-21.99271 q 0,-5.3149 3.75709,-9.07199 3.75709,-3.75709 9.07199,-3.75709 5.31491,0 9.072,3.75709 3.75708,3.75709 3.75708,9.07199 0,5.31491 -3.75708,9.07199 -3.75709,3.75709 -9.072,3.75709 -5.3149,0 -9.07199,-3.75709 -0.0458,-0.0458 -0.0916,-0.0916 l 0,13.01235 z"
         style=""
         id="path4183" />
      <path
         d="m 305.77052,405.1378 q 0.756,0 1.28291,0.54982 0.54982,0.52691 0.54982,1.28291 0,0.756 -0.54982,1.30581 -0.52691,0.52691 -1.28291,0.52691 -9.16363,0 -9.16363,-9.16363 l 0,-12.82908 -1.83273,0 q -0.756,0 -1.30581,-0.52691 -0.52691,-0.54982 -0.52691,-1.30581 0,-0.756 0.52691,-1.28291 0.54981,-0.54982 1.30581,-0.54982 l 1.83273,0 0,-9.16363 q 0,-0.756 0.52691,-1.28291 0.54982,-0.54982 1.30582,-0.54982 0.75599,0 1.2829,0.54982 0.54982,0.52691 0.54982,1.28291 l 0,9.16363 3.68836,0 q 0.756,0 1.28291,0.54982 0.54982,0.52691 0.54982,1.28291 0,0.75599 -0.54982,1.30581 -0.52691,0.52691 -1.28291,0.52691 l -3.68836,0 0,12.82908 q 0,5.49818 5.49818,5.49818 z"
         style=""
         id="path4185" />
    </g>
    <g
       style="font-style:normal;font-variant:normal;font-weight:normal;font-stretch:normal;font-size:46.91778564px;line-height:125%;font-family:Comfortaa;-inkscape-font-specification:'Comfortaa, Normal';text-align:start;letter-spacing:0px;word-spacing:0px;writing-mode:lr-tb;text-anchor:start;fill:#6699cc;fill-opacity:1;stroke:none;stroke-width:0.1;stroke-linecap:butt;stroke-linejoin:miter;stroke-miterlimit:4;stroke-dasharray:none;stroke-opacity:1"
       id="text3344">
      <path
         d="m 325.80807,372.15166 q 0.756,0 1.28291,0.54982 0.54982,0.52691 0.54982,1.28291 0,0.756 -0.54982,1.30582 -0.52691,0.5269 -1.28291,0.5269 -7.3309,0 -7.3309,7.33091 l 0,1.37454 5.52108,0 q 0.756,0 1.28291,0.54982 0.54982,0.52691 0.54982,1.28291 0,0.756 -0.54982,1.30582 -0.52691,0.52691 -1.28291,0.52691 l -5.52108,0 0,18.78544 q 0,0.756 -0.54982,1.30581 -0.52691,0.52691 -1.28291,0.52691 -0.756,0 -1.30582,-0.52691 -0.5269,-0.54981 -0.5269,-1.30581 l 0,-18.78544 -1.83273,0 q -0.756,0 -1.30582,-0.52691 -0.52691,-0.54982 -0.52691,-1.30582 0,-0.756 0.52691,-1.28291 0.54982,-0.54982 1.30582,-0.54982 l 1.83273,0 0,-1.37454 q 0,-10.99636 10.99635,-10.99636 z"
         style=""
         id="path4188" />
      <path
         d="m 334.00952,395.9771 q -2.08473,-0.77891 -2.90945,-1.62654 -1.62655,-1.60364 -1.62655,-3.87164 0,-2.268 1.69527,-3.96327 3.29891,-3.36763 8.61382,-3.36763 5.75017,0 9.8509,4.60472 0.36654,0.43528 0.34363,1.07673 0,0.756 -0.54981,1.30582 -0.52691,0.52691 -1.28291,0.52691 -0.756,0 -1.21418,-0.4811 -0.45818,-0.48109 -0.66437,-0.68727 -2.68036,-2.68036 -6.48326,-2.68036 -3.80291,0 -6.07091,2.38254 -0.54982,0.66437 -0.54982,1.58073 0.0687,1.07673 1.12255,1.46618 l 11.27126,3.73418 q 2.08473,0.77891 2.90946,1.62655 1.62654,1.60363 1.62654,3.87163 0,2.268 -1.69527,3.96327 -3.29891,3.36763 -8.61381,3.36763 -5.77309,0 -9.85091,-4.60472 -0.34363,-0.48109 -0.34363,-1.07673 0,-0.756 0.52691,-1.28291 0.54981,-0.54981 1.30581,-0.54981 0.756,0 1.21419,0.48109 0.45818,0.48109 0.66436,0.68727 2.68036,2.68036 6.48327,2.68036 3.8029,0 6.0709,-2.38254 0.54982,-0.66437 0.54982,-1.58073 -0.0687,-1.07673 -1.12255,-1.46618 l -11.27126,-3.73418 z"
         style=""
         id="path4190" />
    </g>
  </g>
</svg>
