<?xml version="1.0" encoding="UTF-8" standalone="no"?>
<!-- Created with Inkscape (http://www.inkscape.org/) -->

<svg
   xmlns:dc="http://purl.org/dc/elements/1.1/"
   xmlns:cc="http://creativecommons.org/ns#"
   xmlns:rdf="http://www.w3.org/1999/02/22-rdf-syntax-ns#"
   xmlns:svg="http://www.w3.org/2000/svg"
   xmlns="http://www.w3.org/2000/svg"
   xmlns:sodipodi="http://sodipodi.sourceforge.net/DTD/sodipodi-0.dtd"
   xmlns:inkscape="http://www.inkscape.org/namespaces/inkscape"
   width="62.602089mm"
   height="15.45715mm"
   viewBox="0 0 221.81842 54.769427"
   id="svg2"
   version="1.1"
   inkscape:version="0.91 r13725"
   sodipodi:docname="gocryptfs-logo.paths-black.svg"
   inkscape:export-filename="/home/jakob/src/github.com/rfjakob/gocryptfs/Documentation/logo.svg.png"
   inkscape:export-xdpi="185.73964"
   inkscape:export-ydpi="185.73964">
  <defs
     id="defs4" />
  <sodipodi:namedview
     id="base"
     pagecolor="#ffffff"
     bordercolor="#666666"
     borderopacity="1.0"
     inkscape:pageopacity="0.0"
     inkscape:pageshadow="2"
     inkscape:zoom="2"
     inkscape:cx="174.7175"
     inkscape:cy="54.148673"
     inkscape:document-units="px"
     inkscape:current-layer="layer1"
     showgrid="false"
     showguides="true"
     inkscape:guide-bbox="true"
     fit-margin-top="1"
     fit-margin-left="1"
     fit-margin-right="1"
     fit-margin-bottom="1"
     inkscape:window-width="1554"
     inkscape:window-height="773"
     inkscape:window-x="247"
     inkscape:window-y="210"
     inkscape:window-maximized="0">
    <sodipodi:guide
       position="117.02116,15.026611"
       orientation="0,1"
       id="guide4250"
       inkscape:label=""
       inkscape:color="rgb(207,207,255)" />
  </sodipodi:namedview>
  <metadata
     id="metadata7">
    <rdf:RDF>
      <cc:Work
         rdf:about="">
        <dc:format>image/svg+xml</dc:format>
        <dc:type
           rdf:resource="http://purl.org/dc/dcmitype/StillImage" />
        <dc:title></dc:title>
      </cc:Work>
    </rdf:RDF>
  </metadata>
  <g
     inkscape:label="Layer 1"
     inkscape:groupmode="layer"
     id="layer1"
     transform="translate(-129.40711,-258.44211)">
    <g
       style="font-style:normal;font-variant:normal;font-weight:normal;font-stretch:normal;font-size:46.91749954px;line-height:125%;font-family:Comfortaa;-inkscape-font-specification:'Comfortaa, Normal';text-align:start;letter-spacing:0px;word-spacing:0px;writing-mode:lr-tb;text-anchor:start;fill:#000000;fill-opacity:1;stroke:none;stroke-width:0.1;stroke-linecap:butt;stroke-linejoin:miter;stroke-miterlimit:4;stroke-dasharray:none;stroke-opacity:1"
       id="text3336-8">
      <path
         d="m 145.77942,276.67841 q -3.80288,0 -6.48322,2.68035 -2.68035,2.68034 -2.68035,6.48323 0,3.80288 2.68035,6.48322 2.68034,2.68035 6.48322,2.68035 3.80289,0 6.48323,-2.68035 2.68035,-2.68034 2.68035,-6.48322 0,-3.80289 -2.68035,-6.48323 -2.68034,-2.68035 -6.48323,-2.68035 z m 9.16358,18.14388 q -0.0458,0.0458 -0.0916,0.0916 -3.75706,3.75707 -9.07194,3.75707 -5.31487,0 -9.07193,-3.75707 -3.75707,-3.75706 -3.75707,-9.07193 0,-5.31488 3.75707,-9.07194 3.75706,-3.75707 9.07193,-3.75707 5.31488,0 9.07194,3.75707 3.75707,3.75706 3.75707,9.07194 l 0,12.829 q 0,4.00906 -2.88653,6.96432 -4.03197,4.03197 -9.73629,4.03197 -5.70433,0 -9.71339,-4.03197 -1.48908,-1.46618 -2.42835,-3.18435 -0.27491,-0.41236 -0.27491,-0.96217 0,-0.756 0.52691,-1.30581 0.54981,-0.52691 1.30581,-0.52691 0.75599,0 1.30581,0.52691 0.22909,0.252 0.38945,0.54981 0.68727,1.23709 1.76399,2.31381 2.95525,2.95525 7.12468,2.95525 4.16942,0 7.12467,-2.95525 1.83272,-2.19926 1.83272,-4.37561 l 0,-3.8487 z"
         style=""
         id="path4294" />
      <path
         d="m 187.93187,285.84199 q 0,5.31487 -3.75707,9.07193 -3.75707,3.75707 -9.07194,3.75707 -5.31487,0 -9.07194,-3.75707 -3.75706,-3.75706 -3.75706,-9.07193 0,-5.31488 3.75706,-9.07194 3.75707,-3.75707 9.07194,-3.75707 5.31487,0 9.07194,3.75707 3.75707,3.75706 3.75707,9.07194 z m -12.82901,-9.16358 q -3.80288,0 -6.48323,2.68035 -2.68034,2.68034 -2.68034,6.48323 0,3.80288 2.68034,6.48322 2.68035,2.68035 6.48323,2.68035 3.80288,0 6.48323,-2.68035 2.68035,-2.68034 2.68035,-6.48322 0,-3.80289 -2.68035,-6.48323 -2.68035,-2.68035 -6.48323,-2.68035 z"
         style=""
         id="path4296" />
    </g>
    <g
       style="font-style:normal;font-variant:normal;font-weight:normal;font-stretch:normal;font-size:46.91749954px;line-height:125%;font-family:Comfortaa;-inkscape-font-specification:'Comfortaa, Normal';text-align:start;letter-spacing:0px;word-spacing:0px;writing-mode:lr-tb;text-anchor:start;fill:#38a6e1;fill-opacity:1;stroke:none;stroke-width:0.1;stroke-linecap:butt;stroke-linejoin:miter;stroke-miterlimit:4;stroke-dasharray:none;stroke-opacity:1"
       id="text3340-5">
      <path
         d="m 211.84634,292.39489 q 0.756,0 1.2829,0.54981 0.54982,0.52691 0.54982,1.2829 0,0.756 -0.57272,1.35163 -3.55089,3.09271 -8.36177,3.09271 -5.31487,0 -9.07193,-3.75707 -3.75707,-3.75706 -3.75707,-9.07194 0,-5.31487 3.75707,-9.07194 3.75706,-3.75706 9.07193,-3.75706 4.81088,0 8.36177,3.0927 0.64145,0.57273 0.64145,1.42036 0,0.75599 -0.54982,1.30581 -0.5269,0.5269 -1.2829,0.5269 -0.66436,0 -1.16836,-0.41236 -2.5658,-2.26798 -6.00214,-2.26798 -3.80288,0 -6.48322,2.68034 -2.68035,2.68035 -2.68035,6.48323 0,3.80289 2.68035,6.48323 2.68034,2.68035 6.48322,2.68035 3.43634,0 5.97924,-2.24508 0.48108,-0.36654 1.12253,-0.36654 z"
         style=""
         id="path4287" />
      <path
         d="m 217.57358,274.84664 q 0,-0.75599 0.5269,-1.2829 0.54982,-0.54981 1.30581,-0.54981 0.756,0 1.2829,0.54981 0.54982,0.52691 0.54982,1.2829 l 0,2.01599 q 3.8487,-3.8487 9.16357,-3.8487 2.68035,0 4.92542,0.91636 0.41236,0.16036 0.756,0.48108 0.5269,0.54982 0.5269,1.30581 0,0.756 -0.54981,1.30581 -0.52691,0.52691 -1.2829,0.52691 -0.43527,0 -0.80182,-0.18327 -1.62653,-0.68727 -3.57379,-0.68727 -3.80288,0 -6.48323,2.68034 -2.68034,2.68035 -2.68034,6.48323 l 0,10.99629 q 0,0.756 -0.54982,1.30581 -0.5269,0.52691 -1.2829,0.52691 -0.75599,0 -1.30581,-0.52691 -0.5269,-0.54981 -0.5269,-1.30581 l 0,-21.99258 z"
         style=""
         id="path4289" />
      <path
         d="m 248.56937,296.81631 -8.79703,-21.12204 q -0.20618,-0.38945 -0.20618,-0.84763 0,-0.75599 0.5269,-1.2829 0.54982,-0.54981 1.30581,-0.54981 0.75599,0 1.30581,0.5269 0.29782,0.32073 0.43527,0.68727 l 7.42249,17.80024 7.4225,-17.80024 q 0.13745,-0.36654 0.45818,-0.68727 0.5269,-0.5269 1.2829,-0.5269 0.75599,0 1.2829,0.54981 0.54981,0.52691 0.54981,1.2829 0,0.45818 -0.20618,0.84763 l -13.65372,32.75978 q -0.13746,0.36654 -0.43527,0.66436 -0.54982,0.54981 -1.30581,0.54981 -0.756,0 -1.30581,-0.54981 -0.52691,-0.5269 -0.52691,-1.2829 0,-0.45818 0.20618,-0.84763 l 4.23816,-10.17157 z"
         style=""
         id="path4291" />
    </g>
    <g
       style="font-style:normal;font-variant:normal;font-weight:normal;font-stretch:normal;font-size:46.91749954px;line-height:125%;font-family:Comfortaa;-inkscape-font-specification:'Comfortaa, Normal';text-align:start;letter-spacing:0px;word-spacing:0px;writing-mode:lr-tb;text-anchor:start;fill:#000000;fill-opacity:1;stroke:none;stroke-width:0.1;stroke-linecap:butt;stroke-linejoin:miter;stroke-miterlimit:4;stroke-dasharray:none;stroke-opacity:1"
       id="text3344-0">
      <path
         d="m 323.39876,262.02057 q 0.756,0 1.2829,0.54981 0.54982,0.52691 0.54982,1.2829 0,0.756 -0.54982,1.30581 -0.5269,0.52691 -1.2829,0.52691 -7.33086,0 -7.33086,7.33086 l 0,1.37453 5.52105,0 q 0.756,0 1.28291,0.54982 0.54981,0.5269 0.54981,1.2829 0,0.75599 -0.54981,1.30581 -0.52691,0.5269 -1.28291,0.5269 l -5.52105,0 0,18.78533 q 0,0.756 -0.54981,1.30581 -0.52691,0.52691 -1.2829,0.52691 -0.756,0 -1.30581,-0.52691 -0.52691,-0.54981 -0.52691,-1.30581 l 0,-18.78533 -1.83271,0 q -0.756,0 -1.30581,-0.5269 -0.52691,-0.54982 -0.52691,-1.30581 0,-0.756 0.52691,-1.2829 0.54981,-0.54982 1.30581,-0.54982 l 1.83271,0 0,-1.37453 q 0,-10.99629 10.99629,-10.99629 z"
         style=""
         id="path4282" />
      <path
         d="m 331.60016,285.84586 q -2.08471,-0.7789 -2.90943,-1.62653 -1.62654,-1.60363 -1.62654,-3.87161 0,-2.26799 1.69526,-3.96325 3.29889,-3.36761 8.61376,-3.36761 5.75014,0 9.85084,4.60469 0.36655,0.43527 0.34364,1.07672 0,0.756 -0.54982,1.30581 -0.5269,0.52691 -1.2829,0.52691 -0.75599,0 -1.21417,-0.48109 -0.45818,-0.48109 -0.66436,-0.68727 -2.68035,-2.68034 -6.48323,-2.68034 -3.80288,0 -6.07087,2.38253 -0.54981,0.66436 -0.54981,1.58071 0.0687,1.07672 1.12254,1.46618 l 11.27119,3.73415 q 2.08472,0.77891 2.90944,1.62654 1.62653,1.60362 1.62653,3.87161 0,2.26798 -1.69526,3.96324 -3.29889,3.36762 -8.61376,3.36762 -5.77305,0 -9.85084,-4.6047 -0.34363,-0.48109 -0.34363,-1.07672 0,-0.756 0.5269,-1.2829 0.54982,-0.54982 1.30581,-0.54982 0.756,0 1.21417,0.48109 0.45818,0.48109 0.66436,0.68727 2.68035,2.68035 6.48323,2.68035 3.80288,0 6.07087,-2.38253 0.54981,-0.66436 0.54981,-1.58072 -0.0687,-1.07672 -1.12253,-1.46617 l -11.2712,-3.73416 z"
         style=""
         id="path4284" />
    </g>
    <g
       style="font-style:normal;font-variant:normal;font-weight:normal;font-stretch:normal;font-size:46.91749954px;line-height:125%;font-family:Comfortaa;-inkscape-font-specification:'Comfortaa, Normal';text-align:start;letter-spacing:0px;word-spacing:0px;writing-mode:lr-tb;text-anchor:start;fill:#38a6e1;fill-opacity:1;stroke:none;stroke-width:0.1;stroke-linecap:butt;stroke-linejoin:miter;stroke-miterlimit:4;stroke-dasharray:none;stroke-opacity:1"
       id="text3340-5-9-9">
      <path
         d="m 266.82236,285.81071 q 0,3.80288 2.68035,6.48322 2.68034,2.68035 6.48323,2.68035 3.80288,0 6.48323,-2.68035 2.68034,-2.68034 2.68034,-6.48322 0,-3.80289 -2.68034,-6.48323 -2.68035,-2.68035 -6.48323,-2.68035 -3.80289,0 -6.48323,2.68035 -2.68035,2.68034 -2.68035,6.48323 z m 0,21.99257 q 0,0.756 -0.54981,1.2829 -0.52691,0.54982 -1.2829,0.54982 -0.756,0 -1.30581,-0.54982 -0.52691,-0.5269 -0.52691,-1.2829 l 0,-21.99257 q 0,-5.31488 3.75707,-9.07194 3.75706,-3.75707 9.07194,-3.75707 5.31487,0 9.07194,3.75707 3.75706,3.75706 3.75706,9.07194 0,5.31487 -3.75706,9.07193 -3.75707,3.75707 -9.07194,3.75707 -5.31488,0 -9.07194,-3.75707 -0.0458,-0.0458 -0.0916,-0.0916 l 0,13.01227 z"
         style=""
         id="path4277" />
      <path
         d="m 303.29339,294.97428 q 0.75599,0 1.2829,0.54981 0.54981,0.52691 0.54981,1.2829 0,0.756 -0.54981,1.30581 -0.52691,0.52691 -1.2829,0.52691 -9.16358,0 -9.16358,-9.16357 l 0,-12.82901 -1.83271,0 q -0.756,0 -1.30581,-0.5269 -0.52691,-0.54982 -0.52691,-1.30581 0,-0.756 0.52691,-1.2829 0.54981,-0.54982 1.30581,-0.54982 l 1.83271,0 0,-9.16357 q 0,-0.756 0.52691,-1.2829 0.54981,-0.54982 1.30581,-0.54982 0.75599,0 1.2829,0.54982 0.54981,0.5269 0.54981,1.2829 l 0,9.16357 3.68834,0 q 0.756,0 1.2829,0.54982 0.54982,0.5269 0.54982,1.2829 0,0.75599 -0.54982,1.30581 -0.5269,0.5269 -1.2829,0.5269 l -3.68834,0 0,12.82901 q 0,5.49814 5.49815,5.49814 z"
         style=""
         id="path4279" />
    </g>
  </g>
</svg>
